<?xml version="1.0" encoding="utf-8"?>
<!-- Generator: Adobe Illustrator 18.0.0, SVG Export Plug-In . SVG Version: 6.00 Build 0)  -->
<!DOCTYPE svg PUBLIC "-//W3C//DTD SVG 1.1//EN" "http://www.w3.org/Graphics/SVG/1.1/DTD/svg11.dtd">
<svg version="1.1" id="Layer_1" xmlns="http://www.w3.org/2000/svg" xmlns:xlink="http://www.w3.org/1999/xlink" x="0px" y="0px"
	 viewBox="0 0 123.8 123.7" enable-background="new 0 0 123.8 123.7" xml:space="preserve">
<g>
	<g>
		<polygon opacity="0.6" fill="#FFFFFF" points="61.9,123.7 92.8,92.8 61.9,61.8 		"/>
		<polygon opacity="0.11" fill="#FFFFFF" points="61.9,61.8 92.8,30.9 61.9,0 		"/>
		<polygon opacity="0.44" fill="#FFFFFF" points="92.8,30.9 61.9,61.8 92.8,92.8 		"/>
		<polygon opacity="0.2" fill="#FFFFFF" points="92.8,92.8 123.7,61.8 92.8,30.9 		"/>
		<polygon opacity="0.6" fill="#FFFFFF" points="61.9,0 31,30.9 61.9,61.8 		"/>
		<polygon opacity="0.11" fill="#FFFFFF" points="61.9,61.8 31,92.8 61.9,123.7 		"/>
		<polygon opacity="0.22" fill="#FFFFFF" points="31,92.8 61.9,61.8 31,30.9 		"/>
		<polygon opacity="0.44" fill="#FFFFFF" points="31,30.9 0.1,61.8 31,92.8 		"/>
	</g>
	<polygon fill="#FFFFFF" points="123.8,61.9 123.8,0 61.9,0 	"/>
	<polygon fill="#FFFFFF" points="61.9,0 0,0 0,61.9 	"/>
	<polygon fill="#FFFFFF" points="0,61.8 0,123.7 61.9,123.7 	"/>
	<polygon fill="#FFFFFF" points="61.9,123.7 123.8,123.7 123.8,61.8 	"/>
</g>
</svg>
